<svg width="277" height="277" viewBox="0 0 277 277" fill="none" xmlns="http://www.w3.org/2000/svg">
<g filter="url(#filter0_d_306_4)">
<path d="M41.985 83.5023C39.5316 95.3604 34.1662 109.547 24.0405 116.947C20.7752 123.477 19.4793 123.456 17.0961 131.002C14.3919 139.566 15.2776 149.147 13.485 157.947C11.3307 168.522 9.04053 177.56 9.04053 188.502C9.04053 195.922 8.1509 199.603 14.7072 203.947C23.8744 210.02 34.3761 214.475 42.8739 221.502C50.3973 227.724 54.8553 236.65 61.7072 243.502C71.2824 253.078 84.7348 261.265 98.2628 263.28C111.424 265.24 125.014 262.934 135.818 255.169C142.541 250.337 148.126 245.378 155.818 241.891C172.033 234.54 189.835 228.549 203.929 217.391C216.481 207.455 225.083 196.335 232.818 182.391C244.24 161.805 253.584 138.899 258.985 115.947C261.503 105.243 261.041 94.4153 261.041 83.5023C261.041 74.9076 260.86 67.1703 258.041 58.9468C250.718 37.5906 220.668 41.021 202.707 35.4468C197.162 33.726 195.063 26.8029 191.985 22.3912C187.286 15.6563 181.971 9.76362 174.263 6.39124C161.757 0.920117 156.693 13.0929 146.485 16.8912C137.286 20.314 127.188 20.4624 117.541 21.4468C108.19 22.4009 99.3135 24.5485 90.0405 25.9468C74.1972 28.3359 55.748 27.3644 40.5961 33.0023C29.0602 37.2948 29.5869 46.586 33.0405 56.9468C36.2441 66.5576 44.2173 72.7129 41.985 83.5023Z" stroke="#22C55E" stroke-width="10" stroke-linecap="round" shape-rendering="crispEdges"/>
</g>
<defs>
<filter id="filter0_d_306_4" x="0.000640869" y="-0.000198364" width="270.076" height="276.941" filterUnits="userSpaceOnUse" color-interpolation-filters="sRGB">
<feFlood flood-opacity="0" result="BackgroundImageFix"/>
<feColorMatrix in="SourceAlpha" type="matrix" values="0 0 0 0 0 0 0 0 0 0 0 0 0 0 0 0 0 0 127 0" result="hardAlpha"/>
<feOffset dy="4"/>
<feGaussianBlur stdDeviation="2"/>
<feComposite in2="hardAlpha" operator="out"/>
<feColorMatrix type="matrix" values="0 0 0 0 0 0 0 0 0 0 0 0 0 0 0 0 0 0 0.25 0"/>
<feBlend mode="normal" in2="BackgroundImageFix" result="effect1_dropShadow_306_4"/>
<feBlend mode="normal" in="SourceGraphic" in2="effect1_dropShadow_306_4" result="shape"/>
</filter>
</defs>
</svg>
